<svg version="1.1" id="Layer_1" xmlns="http://www.w3.org/2000/svg" xmlns:xlink="http://www.w3.org/1999/xlink" x="0px" y="0px"
	 width="100%" viewBox="0 0 1024 1024" enable-background="new 0 0 1024 1024" xml:space="preserve">
<path fill="#000000" opacity="1.000000" stroke="none" 
	d="
M737.214966,569.194214 
	C714.290955,592.255798 691.592102,615.033508 669.002747,637.919128 
	C666.577271,640.376465 664.086304,641.415649 660.655273,641.374207 
	C647.825623,641.219177 634.992981,641.316040 622.161499,641.294739 
	C620.685974,641.292236 619.210754,641.140808 617.751160,641.059326 
	C617.019348,638.224854 619.258240,637.308228 620.540894,636.017578 
	C649.315918,607.063965 678.140320,578.159424 706.946838,549.237061 
	C709.512146,546.661438 712.254211,544.159302 712.243896,539.980164 
	C709.284546,538.279602 706.102478,538.487854 702.981506,538.316345 
	C666.173767,536.293579 629.352295,538.069885 592.538330,537.983948 
	C510.050690,537.791321 427.562164,537.955017 345.074005,537.982849 
	C340.035583,537.984558 335.096222,537.678528 330.577393,535.044006 
	C324.964325,531.771606 321.147766,524.380127 321.967926,518.134277 
	C322.985535,510.384735 327.958344,504.387634 335.045868,502.793823 
	C337.780365,502.178925 340.654022,501.939789 343.464264,501.939697 
	C455.781342,501.936707 568.098389,502.006561 680.415466,501.977509 
	C691.019653,501.974762 701.586487,500.990295 712.244263,499.652222 
	C712.112000,494.396240 708.857788,491.653381 705.962952,488.762665 
	C677.900146,460.739563 649.803955,432.749939 621.751465,404.716583 
	C620.271667,403.237823 618.266113,402.105560 617.764221,399.808655 
	C618.642456,398.247681 620.134521,398.684937 621.359741,398.682068 
	C635.190918,398.649628 649.022400,398.710175 662.853455,398.662506 
	C665.203064,398.654388 666.889893,399.501404 668.543640,401.153900 
	C706.379150,438.960571 744.264832,476.716858 782.130676,514.493164 
	C786.714783,519.066467 786.695984,519.103516 782.084656,523.774597 
	C767.217651,538.834167 752.343323,553.886475 737.214966,569.194214 
z"/>
<path fill="#000000" opacity="1.000000" stroke="none" 
	d="
M475.000549,605.595581 
	C524.729370,605.144226 573.958313,604.698059 623.042847,605.410522 
	C623.556763,607.841858 622.262024,608.583130 621.372009,609.472778 
	C611.825012,619.015503 602.206421,628.487244 592.719666,638.089233 
	C590.441406,640.395081 587.995911,641.342224 584.751099,641.341003 
	C466.593018,641.296509 348.434906,641.321045 230.276825,641.323059 
	C228.800797,641.323059 227.267502,641.590698 225.884338,640.771851 
	C225.114853,639.165955 226.351089,638.323975 227.175003,637.335022 
	C235.066589,627.862793 243.039856,618.456787 250.800751,608.878723 
	C252.806732,606.403076 254.999908,605.594299 258.081512,605.554810 
	C312.404694,604.859497 366.729919,605.121643 421.054291,605.149353 
	C438.869812,605.158447 456.685211,605.439026 475.000549,605.595581 
z"/>
<path fill="#000000" opacity="1.000000" stroke="none" 
	d="
M398.999939,486.263550 
	C366.005646,486.273285 333.511322,486.311188 301.017090,486.277100 
	C290.777954,486.266327 284.250519,481.699097 281.625519,472.987915 
	C278.473022,462.526276 286.023163,451.468567 296.934479,450.725525 
	C300.252472,450.499573 303.597290,450.656830 306.929840,450.656891 
	C416.410645,450.659454 525.891418,450.690796 635.372192,450.580566 
	C640.221069,450.575684 643.803162,451.769958 647.209106,455.371674 
	C655.449036,464.085144 664.123474,472.387115 672.591492,480.886078 
	C673.831665,482.130798 675.454285,483.170502 675.875305,486.263916 
	C583.537292,486.263916 491.518616,486.263916 398.999939,486.263550 
z"/>
<path fill="#000000" opacity="1.000000" stroke="none" 
	d="
M576.000000,589.312134 
	C483.859100,589.328735 392.218170,589.350708 300.577271,589.352295 
	C290.357086,589.352478 283.761047,584.687744 281.430054,575.976685 
	C278.581390,565.330994 286.030334,554.695618 297.031860,553.758667 
	C298.687103,553.617676 300.362305,553.697510 302.028259,553.697388 
	C424.327240,553.691162 546.626221,553.687317 668.925232,553.683167 
	C670.898682,553.683105 672.872131,553.683105 674.601807,553.683105 
	C675.715515,555.823364 674.342041,556.601196 673.470398,557.477173 
	C663.601196,567.395203 653.650879,577.233276 643.858032,587.225830 
	C641.802917,589.322937 639.474304,589.286194 636.983032,589.287354 
	C616.822021,589.296570 596.661011,589.303650 576.000000,589.312134 
z"/>
<path fill="#000000" opacity="1.000000" stroke="none" 
	d="
M592.553162,401.110840 
	C603.378479,411.887634 613.931213,422.395782 624.570251,432.989838 
	C622.346375,434.958862 620.437683,434.338135 618.706848,434.338562 
	C499.398560,434.367615 380.090240,434.340668 260.782043,434.441467 
	C256.402557,434.445160 253.280746,433.282501 250.456970,429.874268 
	C242.911545,420.766937 235.065323,411.908844 227.342667,402.948212 
	C226.589355,402.074127 225.670273,401.289001 225.613800,399.869598 
	C226.802597,397.920471 228.840714,398.706848 230.508301,398.706299 
	C348.816772,398.667236 467.125275,398.675934 585.433777,398.662933 
	C587.979187,398.662659 590.467529,398.636780 592.553162,401.110840 
z"/>
</svg>